<svg xmlns="http://www.w3.org/2000/svg" viewBox="0 0 220 160">
  <defs>
    <linearGradient id="card" x1="0" y1="0" x2="0" y2="1"><stop offset="0" stop-color="#fff" stop-opacity=".42"/><stop offset="1" stop-color="#fff" stop-opacity=".12"/></linearGradient>
    <linearGradient id="head" x1="0" y1="0" x2="1" y2="0"><stop offset="0" stop-color="#2fb7a4"/><stop offset="1" stop-color="#3b7bd9"/></linearGradient>
    <radialGradient id="ball" cx=".35" cy=".3" r=".8"><stop offset="0" stop-color="#f6ff9e"/><stop offset=".55" stop-color="#d9f43a"/><stop offset="1" stop-color="#9fbb12"/></radialGradient>
    <filter id="sh" x="-30%" y="-30%" width="160%" height="160%"><feDropShadow dx="0" dy="6" stdDeviation="6" flood-color="#000" flood-opacity=".35"/></filter>
  </defs>
  <g filter="url(#sh)">
    <rect x="50" y="26" width="120" height="112" rx="16" fill="url(#card)" stroke="#fff" stroke-opacity=".5"/>
    <path d="M50 42a16 16 0 0 1 16-16h88a16 16 0 0 1 16 16v14H50z" fill="url(#head)"/>
    <g fill="#e9eef5"><rect x="76" y="16" width="8" height="22" rx="4"/><rect x="136" y="16" width="8" height="22" rx="4"/></g>
    <g fill="#fff" opacity=".55">
      <circle cx="72" cy="74" r="4"/><circle cx="94" cy="74" r="4"/><circle cx="116" cy="74" r="4"/><circle cx="148" cy="74" r="4"/>
      <circle cx="72" cy="96" r="4"/><circle cx="94" cy="96" r="4"/><circle cx="126" cy="96" r="4"/><circle cx="148" cy="96" r="4"/>
      <circle cx="72" cy="118" r="4"/><circle cx="94" cy="118" r="4"/><circle cx="116" cy="118" r="4"/>
    </g>
    <circle cx="137" cy="74" r="0"/>
    <circle cx="116" cy="97" r="11" fill="url(#ball)"/>
    <path d="M107 92c4 1 8 4 8 10M125 102c-4-1-8-4-8-10" fill="none" stroke="#fff" stroke-width="1.8" stroke-linecap="round"/>
  </g>
  <!-- Haken: Zusage -->
  <g filter="url(#sh)">
    <circle cx="168" cy="122" r="18" fill="#2fb7a4" stroke="#fff" stroke-width="2.5"/>
    <path d="M159 122l6 6 12-13" fill="none" stroke="#fff" stroke-width="4" stroke-linecap="round" stroke-linejoin="round"/>
  </g>
</svg>
